<svg xmlns="http://www.w3.org/2000/svg" viewBox="0 0 380 110" width="380" height="110"><defs></defs><g transform="translate(6,5)"><path fill="#141414" fill-rule="evenodd" d="M14,94 L14,39 A36,36 0 0 1 50,3 A36,36 0 0 1 86,39 L86,94 A3,3 0 0 1 83,97 L17,97 A3,3 0 0 1 14,94 Z M28.4,97 L28.4,39 A21.6,21.6 0 0 1 50,17.4 A21.6,21.6 0 0 1 71.6,39 L71.6,97 Z"></path></g><text x="118" y="71" font-family="&#39;Plus Jakarta Sans&#39;,Arial,sans-serif" font-size="60" letter-spacing="-1.5"><tspan fill="#141414" font-weight="700">Zeoli</tspan><tspan fill="#8C8B7E" font-weight="600"> Realty</tspan></text></svg>